<?xml version="1.0" encoding="utf-8"?>
<!-- Generator: Adobe Illustrator 19.0.0, SVG Export Plug-In . SVG Version: 6.00 Build 0)  -->
<svg version="1.1" xmlns="http://www.w3.org/2000/svg" xmlns:xlink="http://www.w3.org/1999/xlink" x="0px" y="0px"
	 viewBox="-279 329.9 387.5 56.5" style="enable-background:new -279 329.9 387.5 56.5;" xml:space="preserve">
<style type="text/css">
	.st0{display:none;}
	.st1{display:inline;opacity:0.36;fill:#88C542;}
	.st2{fill:#88C542;stroke:#88C542;stroke-width:0.624;stroke-miterlimit:10;}
	.st3{fill:#FFFFFF;stroke:#FFFFFF;stroke-width:2.08;stroke-miterlimit:10;}
	.st4{fill:#0FFFFF;stroke:#FFFFFF;stroke-width:2.08;stroke-miterlimit:10;}
	.st5{fill:none;stroke:#FFFFFF;stroke-width:2.5268;stroke-miterlimit:10;}
	.st6{fill:#FFFFFF;}
</style>
<g id="圖層_2" class="st0">
	<rect x="-282.9" y="309.4" class="st1" width="396.8" height="99"/>
</g>
<g id="Layer_1">
	<g>
		<path class="st2" d="M-279,347.7"/>
		<g>
			<path class="st3" d="M-166.9,362.5c0,6.1-2.3,11.5-6.8,16.2c-4.5,4.7-9.7,7.1-15.6,7.1c-5.8,0-11-2.4-15.6-7.1
				c-4.5-4.7-6.8-10.1-6.8-16.2s2.3-11.5,6.8-16.2c4.5-4.7,9.7-7.1,15.6-7.1c5.8,0,11,2.4,15.6,7.1
				C-169.1,351-166.9,356.4-166.9,362.5z M-176,362.5c0-3.4-1.4-6.6-4.1-9.4c-2.7-2.8-5.8-4.3-9.1-4.3s-6.3,1.4-9.1,4.3
				c-2.7,2.8-4.1,6-4.1,9.4s1.4,6.6,4.1,9.4c2.7,2.8,5.8,4.2,9.1,4.2s6.3-1.4,9.1-4.2C-177.4,369.1-176,366-176,362.5z"/>
		</g>
		<path class="st4" d="M-184,362.5c0,2.6-2,4.7-4.5,4.7s-4.5-2.1-4.5-4.7s2-4.7,4.5-4.7S-184,359.9-184,362.5z"/>
		<line class="st5" x1="-188.3" y1="344.9" x2="-188.6" y2="383"/>
		<line class="st5" x1="-204.6" y1="362.3" x2="-168" y2="362.3"/>
		<line class="st5" x1="-202.2" y1="375.2" x2="-174.7" y2="350.1"/>
		<line class="st5" x1="-201.2" y1="351.6" x2="-173.3" y2="376.2"/>
		<g>
			<path class="st3" d="M-232.9,362.5c0,6.1-2.3,11.5-6.8,16.2c-4.5,4.7-9.7,7.1-15.6,7.1s-11-2.4-15.6-7.1
				c-4.5-4.7-6.8-10.1-6.8-16.2s2.3-11.5,6.8-16.2c4.5-4.7,9.7-7.1,15.6-7.1s11,2.4,15.6,7.1C-235.2,351-232.9,356.4-232.9,362.5z
				 M-242.1,362.5c0-3.4-1.4-6.6-4.1-9.4c-2.7-2.8-5.8-4.3-9.1-4.3c-3.3,0-6.3,1.4-9.1,4.3c-2.7,2.8-4.1,6-4.1,9.4s1.4,6.6,4.1,9.4
				c2.7,2.8,5.8,4.2,9.1,4.2c3.3,0,6.3-1.4,9.1-4.2C-243.5,369.1-242.1,366-242.1,362.5z"/>
		</g>
		<path class="st4" d="M-250,362.5c0,2.6-2,4.7-4.5,4.7s-4.5-2.1-4.5-4.7s2-4.7,4.5-4.7S-250,359.9-250,362.5z"/>
		<line class="st5" x1="-254.4" y1="344.9" x2="-254.7" y2="383"/>
		<line class="st5" x1="-270.7" y1="362.3" x2="-234.1" y2="362.3"/>
		<line class="st5" x1="-268.3" y1="375.2" x2="-240.8" y2="350.1"/>
		<line class="st5" x1="-267.3" y1="351.6" x2="-239.3" y2="376.2"/>
		<path class="st6" d="M-197.4,335.3c0,1.5-0.5,2.7-1.5,3.8s-2.3,1.6-3.8,1.6h-13.8v34.7c0,1.5-0.5,2.7-1.5,3.8
			c-1,1-2.3,1.5-3.7,1.5c-1.5,0-2.8-0.5-3.8-1.5s-1.5-2.3-1.5-3.8v-34.7h-14c-1.5,0-2.8-0.5-3.8-1.6s-1.5-2.3-1.5-3.8
			s0.5-2.8,1.5-3.8s2.3-1.6,3.8-1.6h38.4c1.5,0,2.8,0.5,3.8,1.6C-197.9,332.5-197.4,333.8-197.4,335.3z"/>
		<path class="st6" d="M-100.1,380.3c0,1.4-0.5,2.7-1.5,3.7s-2.2,1.5-3.7,1.5c-1.4,0-2.6-0.5-3.6-1.5s-1.5-2.3-1.5-3.7v-14.2h-22
			v14.4c0,1.5-0.5,2.7-1.5,3.8c-1,1-2.2,1.5-3.6,1.5c-1.4,0-2.7-0.5-3.7-1.5s-1.5-2.3-1.5-3.8v-39.3c0-1.4,0.5-2.7,1.5-3.7
			s2.3-1.5,3.7-1.5s2.6,0.5,3.6,1.6c1,1,1.5,2.3,1.5,3.7v14.2h22v-14.4c0-1.5,0.5-2.8,1.5-3.8s2.2-1.5,3.6-1.5
			c1.4,0,2.7,0.5,3.7,1.5s1.5,2.3,1.5,3.8V380.3z"/>
		<path class="st6" d="M-58.6,380.3c-3.9,3.9-8.5,5.8-14,5.8c-5.4,0-10-1.9-13.9-5.8c-3.9-3.9-5.8-8.5-5.8-13.9
			c0,0.1,0-4.5-0.1-13.8c0-1.4,0.5-2.7,1.6-3.7c1-1,2.3-1.5,3.7-1.5c1.3,0,2.5,0.5,3.6,1.4c1.1,0.9,1.6,2.2,1.6,3.7v13.9
			c0,2.6,0.9,4.8,2.7,6.6s4,2.7,6.6,2.7c2.5,0,4.7-0.9,6.5-2.7s2.7-4,2.7-6.6c0,0.1,0-4.5,0-13.8c-0.1-1.4,0.4-2.6,1.5-3.7
			c1-1.1,2.3-1.6,3.7-1.6s2.6,0.5,3.7,1.4c1.1,0.9,1.6,2.1,1.6,3.6l0.2,14C-52.8,371.8-54.8,376.4-58.6,380.3z"/>
		<path class="st6" d="M-6.3,380.8c0,1.4-0.5,2.7-1.6,3.7c-1.1,1.1-2.3,1.6-3.7,1.6c-1.3,0-2.5-0.5-3.6-1.4c-1.1-1-1.6-2.2-1.6-3.7
			v-14c0-2.5-0.9-4.7-2.7-6.5c-1.8-1.8-4-2.7-6.5-2.7s-4.6,0.9-6.4,2.7s-2.7,4-2.7,6.5v13.8c0,1.4-0.5,2.7-1.6,3.7
			c-1.1,1.1-2.3,1.6-3.7,1.6c-1.4,0-2.6-0.5-3.7-1.4c-1.1-1-1.6-2.2-1.6-3.7v-13.9c0-5.5,1.9-10.1,5.7-13.9
			c3.8-3.8,8.5-5.7,13.9-5.7s10.1,1.9,13.9,5.8c3.9,3.8,5.8,8.5,5.8,13.9C-6.4,367.1-6.4,371.6-6.3,380.8z"/>
		<path class="st6" d="M29.2,381c0,1.5-0.5,2.7-1.4,3.7c-1,1-2.1,1.5-3.4,1.6c-1.9,0.1-3.3,0.1-4.2,0.1c-5.2,0-9.6-1.9-13.2-5.7
			c-3.7-3.8-5.5-8.5-5.5-14.1v-23.9c0-1.5,0.5-2.7,1.5-3.7s2.1-1.5,3.4-1.5c3.6,0,5.3,2.8,5.2,8.5h12.7c1.5,0,2.7,0.6,3.6,1.8
			c0.7,1.1,1.1,2.2,1.1,3.5c0,1.5-0.5,2.7-1.5,3.8c-1,1-2.2,1.6-3.6,1.6H11.4v9.3c0,2.6,0.9,4.9,2.6,6.7c1.8,1.8,3.8,2.7,6.2,2.7
			c0.3,0,1,0,2,0c0.8,0,1.5,0,2,0c1.3,0,2.5,0.5,3.5,1.6C28.7,378.2,29.2,379.5,29.2,381z"/>
		<path class="st6" d="M76.1,371.9h-27c1.9,2.5,4.4,3.8,7.5,3.8c0.3,0,1,0,2.2,0c0.9,0,1.7,0,2.2,0c1.3,0.1,2.5,0.6,3.6,1.5
			c1,1,1.5,2.2,1.5,3.7c0,2.5-1.1,4-3.3,4.8c-1.1,0.4-3.2,0.5-6.3,0.5c-5.4,0-10-1.9-13.9-5.8s-5.8-8.5-5.8-13.9
			c0-5.5,1.9-10.1,5.8-14s8.5-5.8,13.9-5.8c5.2,0,9.6,1.8,13.4,5.3s5.9,7.8,6.2,12.9C76.1,366,76.1,368.3,76.1,371.9z M63.6,361.3
			c-1.6-2.8-4-4.2-7.1-4.2c-3.3,0-5.9,1.4-7.7,4.2H63.6z"/>
		<path class="st6" d="M109.9,352c0,1.3-0.5,2.4-1.4,3.4s-2,1.5-3.3,1.5c-0.4,0-1.1,0-2,0s-1.6,0-2.1,0c-2.4,0-4.5,0.9-6.3,2.8
			c-1.8,1.8-2.6,4.1-2.6,6.8v14.3c0,1.4-0.5,2.6-1.5,3.5s-2.1,1.3-3.2,1.3c-1.2,0-2.3-0.4-3.2-1.4c-0.9-0.9-1.4-2-1.4-3.4v-14.4
			c0-5.1,1.7-9.5,5-13.2s7.4-5.8,12.2-6.1l-1.3,1.5c0.9-0.9,1.7-1.4,2.4-1.5h6.4v0.7C109.1,348.7,109.9,350.1,109.9,352z"/>
	</g>
</g>
</svg>
